<svg width="31" height="38" viewBox="0 0 31 38" fill="none" xmlns="http://www.w3.org/2000/svg">
<path d="M2.24753 25.6532L2.2484 25.4918L2.15471 25.3603L1.2051 24.0279C1.14013 23.9367 1.11394 23.8239 1.1319 23.7138C1.14987 23.6038 1.21065 23.5048 1.30157 23.4387L1.3016 23.4387L2.13697 22.8308L2.34747 22.6776L2.34269 22.4173L2.28282 19.1607L2.28253 19.1447L2.28122 19.1288L1.59823 10.8461L1.59299 10.7826L1.57201 10.7225L0.652512 8.0873L0.60498 2.91738L8.24648 3.10984L8.70087 3.12129L8.75545 2.67005L8.93892 1.15332H10.0564L10.4377 4.22925L10.4792 4.5642L10.8054 4.65095C11.5113 4.83869 12.2306 5.00147 12.9442 5.13665L12.9467 5.13712C14.4588 5.41554 15.9898 5.57969 17.5266 5.62817C17.8404 5.63963 18.1397 5.76191 18.3712 5.9729L18.3729 5.97441C19.0618 6.59675 19.8302 7.12551 20.658 7.54698L20.658 7.547L20.6617 7.54886L20.7518 7.59378C21.7138 8.11592 22.768 8.44732 23.8563 8.56969C23.8567 8.56974 23.8572 8.56979 23.8576 8.56984L29.846 9.27324L28.1283 10.2672L28.0861 10.2916L28.0494 10.3237L20.3134 17.0948L20.149 17.2386L20.1429 17.4569L20.0467 20.8772C19.5743 21.3329 19.0569 21.7399 18.5022 22.092C18.1333 22.2916 17.8328 22.5978 17.6405 22.9708L17.6404 22.9707L17.6354 22.981C17.497 23.265 17.4449 23.5833 17.4857 23.8967L17.4884 23.9181L17.493 23.9391C17.5599 24.2449 17.702 24.5289 17.9062 24.7658L17.9808 24.8718L17.9808 24.8718L17.9842 24.8766C18.1473 25.1025 18.3131 25.3623 18.479 25.6313L18.2143 30.137L18.1983 30.4103L18.4198 30.5711L24.8103 35.2075L24.862 36.8572L2.1871 36.8127L2.24753 25.6532ZM10.4116 1.15331C10.4107 1.15332 10.4097 1.15333 10.4087 1.15333L10.4116 1.15331Z" fill="#E5F3FF" stroke="#99D2FF"/>
<mask id="path-2-inside-1_1785_3388" fill="white">
<path d="M10.3919 0.745723C10.5407 1.91267 10.6894 3.08053 10.8382 4.24929C11.5212 4.43112 12.2477 4.59938 13.0151 4.74321C14.5065 5.02478 16.0176 5.19081 17.5348 5.23984C17.9393 5.25817 18.3245 5.41761 18.6232 5.69034C19.2855 6.28934 20.0249 6.79768 20.8218 7.20195C21.7668 7.72862 22.8074 8.06257 23.883 8.18436L30.2558 8.92796C30.3154 8.93166 30.3721 8.95481 30.4172 8.99385C30.4623 9.03289 30.4933 9.08564 30.5054 9.14397C30.5175 9.2023 30.51 9.26297 30.484 9.31663C30.4581 9.37028 30.4152 9.41394 30.3619 9.44087L28.3266 10.6214L20.5443 17.425L20.4436 21.048C19.9163 21.5735 19.3333 22.0404 18.7048 22.4402C18.3995 22.6 18.1514 22.8503 17.9946 23.1566C17.8911 23.3707 17.8514 23.61 17.8804 23.8459C17.9184 24.1173 18.0382 24.2503 18.3076 24.6411C18.4436 24.8392 18.645 25.1404 18.8844 25.5285L18.6123 30.2153L25.2055 35.0025L25.2735 37.255L1.78245 37.2116L1.84504 25.6181L0.876333 24.2612C0.813282 24.1741 0.768108 24.0756 0.743412 23.9711C0.718717 23.8666 0.714987 23.7582 0.732437 23.6523C0.749888 23.5464 0.788174 23.4449 0.845092 23.3538C0.90201 23.2627 0.976437 23.1837 1.06409 23.1213L1.9566 22.4782L1.89402 19.1754L1.21375 10.8792L0.258648 8.13823L0.21239 2.81096C0.21203 2.77153 0.219507 2.73242 0.234388 2.69588C0.24927 2.65935 0.27126 2.62612 0.29909 2.59811C0.32692 2.5701 0.360039 2.54787 0.396532 2.5327C0.433026 2.51753 0.472172 2.50972 0.511709 2.50972L8.35658 2.70783C8.43095 2.05651 8.50624 1.40519 8.58243 0.753864H10.4028L10.3919 0.745723ZM10.4028 0.550326H9.48855H8.57698C8.52707 0.551287 8.47919 0.570226 8.44217 0.603645C8.40517 0.637065 8.38153 0.68271 8.37562 0.732153L8.17154 2.49886L0.51443 2.30618C0.445801 2.30458 0.377569 2.317 0.313928 2.34266C0.250287 2.36833 0.192583 2.40671 0.144363 2.45544C0.0971847 2.50225 0.0600652 2.55816 0.0352698 2.61975C0.0104744 2.68134 -0.00147697 2.74732 0.000145627 2.81367L0.0518463 8.13823C0.0487938 8.15983 0.0487938 8.18176 0.0518463 8.20336L0.998781 10.9172L1.68449 19.1944L1.74436 22.375L0.952523 22.9531C0.733728 23.1123 0.586536 23.3511 0.542749 23.6176C0.498962 23.8842 0.562097 24.1573 0.718511 24.3779L1.64912 25.6805L1.58653 37.2089C1.58658 37.2629 1.60811 37.3146 1.6464 37.3527C1.685 37.3907 1.73642 37.413 1.79061 37.4152L25.2817 37.4586C25.3366 37.4587 25.3894 37.4372 25.4286 37.3989C25.4476 37.379 25.4625 37.3556 25.4723 37.33C25.4821 37.3044 25.4867 37.277 25.4858 37.2496L25.4177 34.9944C25.4166 34.9635 25.4084 34.9333 25.3938 34.906C25.3792 34.8787 25.3585 34.8551 25.3334 34.837L18.8273 30.1176L19.0749 25.7755V25.5367C19.0773 25.4948 19.0669 25.4531 19.045 25.4173C18.8545 25.1106 18.6586 24.8094 18.4627 24.5244L18.3729 24.3941C18.2234 24.23 18.1193 24.0298 18.0708 23.8134C18.0455 23.6173 18.0786 23.4182 18.1661 23.2408C18.3023 22.9756 18.517 22.7586 18.781 22.6193H18.7974C19.4388 22.212 20.0337 21.736 20.5715 21.1999C20.6094 21.1624 20.6318 21.112 20.6341 21.0588L20.732 17.5308L28.4354 10.8005L30.4545 9.63084C30.5409 9.57986 30.6093 9.50319 30.6499 9.41155C30.6905 9.31992 30.7014 9.21791 30.681 9.1198C30.6606 9.02169 30.61 8.9324 30.5362 8.86442C30.4624 8.79644 30.3691 8.75318 30.2694 8.7407L26.8926 8.34448L23.8994 7.99439C22.8928 7.87343 21.9191 7.56015 21.0314 7.07169L20.9334 7.02827C20.1525 6.63156 19.4278 6.13329 18.7783 5.54651C18.4397 5.24096 18.0046 5.06332 17.5484 5.04445C16.0423 4.99535 14.5422 4.83113 13.0613 4.55324C12.3838 4.42569 11.7008 4.28186 11.0314 4.09732L10.7919 2.21934L10.6015 0.726726C10.5973 0.674898 10.5731 0.626706 10.534 0.592288C10.495 0.55787 10.444 0.53991 10.3919 0.542185L10.4028 0.550326Z"/>
</mask>
<path d="M10.3919 0.745723C10.5407 1.91267 10.6894 3.08053 10.8382 4.24929C11.5212 4.43112 12.2477 4.59938 13.0151 4.74321C14.5065 5.02478 16.0176 5.19081 17.5348 5.23984C17.9393 5.25817 18.3245 5.41761 18.6232 5.69034C19.2855 6.28934 20.0249 6.79768 20.8218 7.20195C21.7668 7.72862 22.8074 8.06257 23.883 8.18436L30.2558 8.92796C30.3154 8.93166 30.3721 8.95481 30.4172 8.99385C30.4623 9.03289 30.4933 9.08564 30.5054 9.14397C30.5175 9.2023 30.51 9.26297 30.484 9.31663C30.4581 9.37028 30.4152 9.41394 30.3619 9.44087L28.3266 10.6214L20.5443 17.425L20.4436 21.048C19.9163 21.5735 19.3333 22.0404 18.7048 22.4402C18.3995 22.6 18.1514 22.8503 17.9946 23.1566C17.8911 23.3707 17.8514 23.61 17.8804 23.8459C17.9184 24.1173 18.0382 24.2503 18.3076 24.6411C18.4436 24.8392 18.645 25.1404 18.8844 25.5285L18.6123 30.2153L25.2055 35.0025L25.2735 37.255L1.78245 37.2116L1.84504 25.6181L0.876333 24.2612C0.813282 24.1741 0.768108 24.0756 0.743412 23.9711C0.718717 23.8666 0.714987 23.7582 0.732437 23.6523C0.749888 23.5464 0.788174 23.4449 0.845092 23.3538C0.90201 23.2627 0.976437 23.1837 1.06409 23.1213L1.9566 22.4782L1.89402 19.1754L1.21375 10.8792L0.258648 8.13823L0.21239 2.81096C0.21203 2.77153 0.219507 2.73242 0.234388 2.69588C0.24927 2.65935 0.27126 2.62612 0.29909 2.59811C0.32692 2.5701 0.360039 2.54787 0.396532 2.5327C0.433026 2.51753 0.472172 2.50972 0.511709 2.50972L8.35658 2.70783C8.43095 2.05651 8.50624 1.40519 8.58243 0.753864H10.4028L10.3919 0.745723ZM10.4028 0.550326H9.48855H8.57698C8.52707 0.551287 8.47919 0.570226 8.44217 0.603645C8.40517 0.637065 8.38153 0.68271 8.37562 0.732153L8.17154 2.49886L0.51443 2.30618C0.445801 2.30458 0.377569 2.317 0.313928 2.34266C0.250287 2.36833 0.192583 2.40671 0.144363 2.45544C0.0971847 2.50225 0.0600652 2.55816 0.0352698 2.61975C0.0104744 2.68134 -0.00147697 2.74732 0.000145627 2.81367L0.0518463 8.13823C0.0487938 8.15983 0.0487938 8.18176 0.0518463 8.20336L0.998781 10.9172L1.68449 19.1944L1.74436 22.375L0.952523 22.9531C0.733728 23.1123 0.586536 23.3511 0.542749 23.6176C0.498962 23.8842 0.562097 24.1573 0.718511 24.3779L1.64912 25.6805L1.58653 37.2089C1.58658 37.2629 1.60811 37.3146 1.6464 37.3527C1.685 37.3907 1.73642 37.413 1.79061 37.4152L25.2817 37.4586C25.3366 37.4587 25.3894 37.4372 25.4286 37.3989C25.4476 37.379 25.4625 37.3556 25.4723 37.33C25.4821 37.3044 25.4867 37.277 25.4858 37.2496L25.4177 34.9944C25.4166 34.9635 25.4084 34.9333 25.3938 34.906C25.3792 34.8787 25.3585 34.8551 25.3334 34.837L18.8273 30.1176L19.0749 25.7755V25.5367C19.0773 25.4948 19.0669 25.4531 19.045 25.4173C18.8545 25.1106 18.6586 24.8094 18.4627 24.5244L18.3729 24.3941C18.2234 24.23 18.1193 24.0298 18.0708 23.8134C18.0455 23.6173 18.0786 23.4182 18.1661 23.2408C18.3023 22.9756 18.517 22.7586 18.781 22.6193H18.7974C19.4388 22.212 20.0337 21.736 20.5715 21.1999C20.6094 21.1624 20.6318 21.112 20.6341 21.0588L20.732 17.5308L28.4354 10.8005L30.4545 9.63084C30.5409 9.57986 30.6093 9.50319 30.6499 9.41155C30.6905 9.31992 30.7014 9.21791 30.681 9.1198C30.6606 9.02169 30.61 8.9324 30.5362 8.86442C30.4624 8.79644 30.3691 8.75318 30.2694 8.7407L26.8926 8.34448L23.8994 7.99439C22.8928 7.87343 21.9191 7.56015 21.0314 7.07169L20.9334 7.02827C20.1525 6.63156 19.4278 6.13329 18.7783 5.54651C18.4397 5.24096 18.0046 5.06332 17.5484 5.04445C16.0423 4.99535 14.5422 4.83113 13.0613 4.55324C12.3838 4.42569 11.7008 4.28186 11.0314 4.09732L10.7919 2.21934L10.6015 0.726726C10.5973 0.674898 10.5731 0.626706 10.534 0.592288C10.495 0.55787 10.444 0.53991 10.3919 0.542185L10.4028 0.550326Z" fill="#E5F3FF" stroke="#99D2FF" stroke-width="2" mask="url(#path-2-inside-1_1785_3388)"/>
</svg>
